<svg version="1.1" viewBox="0.0 0.0 1020.1994750656168 117.36220472440945" fill="none" stroke="none" stroke-linecap="square" stroke-miterlimit="10" xmlns:xlink="http://www.w3.org/1999/xlink" xmlns="http://www.w3.org/2000/svg"><clipPath id="p.0"><path d="m0 0l1020.19946 0l0 117.362206l-1020.19946 0l0 -117.362206z" clip-rule="nonzero"/></clipPath><g clip-path="url(#p.0)"><path fill="#000000" fill-opacity="0.0" d="m0 0l1020.19946 0l0 117.362206l-1020.19946 0z" fill-rule="evenodd"/><g filter="url(#shadowFilter-p.1)"><use xlink:href="#p.1" transform="matrix(1.0 0.0 0.0 1.0 0.0 2.0)"/></g><defs><filter id="shadowFilter-p.1" filterUnits="userSpaceOnUse"><feGaussianBlur in="SourceAlpha" stdDeviation="7.0" result="blur"/><feComponentTransfer in="blur" color-interpolation-filters="sRGB"><feFuncR type="linear" slope="0" intercept="0.0"/><feFuncG type="linear" slope="0" intercept="0.0"/><feFuncB type="linear" slope="0" intercept="0.0"/><feFuncA type="linear" slope="0.4" intercept="0"/></feComponentTransfer></filter></defs><g id="p.1"><path fill="#da291c" d="m0 24.372704l972.2362 0l34.850403 34.850395l-34.850403 34.850395l-972.2362 0z" fill-rule="evenodd"/></g><path fill="#000000" fill-opacity="0.0" d="m33.824146 24.366142l510.39368 0l0 69.70079l-510.39368 0z" fill-rule="evenodd"/><path fill="#ffffff" d="m72.94915 40.354034l0 3.09375l-22.656254 0l0 13.75l21.218754 0l0 3.09375l-21.218754 0l0 15.03125l22.921879 0l0 3.09375l-26.562504 0l0 -38.0625l26.296879 0zm6.564621 10.546875l7.84375 10.453125l7.671875 -10.453125l4.203125 0l-9.921875 13.171875l10.71875 14.34375l-4.265625 0l-8.640625 -11.5625l-8.46875 11.5625l-4.171875 0l10.6875 -14.296875l-9.875 -13.21875l4.21875 0zm36.78917 -0.78125q5.78125 0 9.078125 4.03125q3.2968674 4.03125 3.2968674 10.515625q0 6.4375 -3.3124924 10.5q-3.296875 4.0625 -9.03125 4.0625q-3.28125 0 -5.921875 -1.609375q-2.640625 -1.625 -3.65625 -4.4375l-0.109375 0l0 15.421875l-3.359375 0l0 -37.703125l3.09375 0l0 5.21875l0.109375 0q1.21875 -2.890625 3.84375 -4.4375q2.640625 -1.5625 5.96875 -1.5625zm-9.65625 14.515625q0 5.234375 2.515625 8.5q2.515625 3.25 7.140625 3.25q4.21875 0 6.609375 -3.34375q2.40625 -3.34375 2.40625 -8.375q0 -5.046875 -2.40625 -8.390625q-2.390625 -3.359375 -6.6875 -3.359375q-4.65625 0 -7.125 2.953125q-2.453125 2.9375 -2.453125 8.765625zm38.122 -14.515625q5.203125 0 7.65625 2.25q2.453125 2.25 2.453125 6.359375l0 14.953125q0 0.828125 0.46875 1.359375q0.46875 0.53125 1.5 0.53125q0.296875 0 0.546875 -0.03125q0.265625 -0.046875 0.5 -0.171875l0 2.84375q-0.625 0.125 -1.109375 0.171875q-0.484375 0.03125 -1.03125 0.03125q-2.1875 0 -3.09375 -1.046875q-0.890625 -1.0625 -0.890625 -3.453125l0 -0.296875l-0.09375 0q-2.0625 3.125 -4.3125 4.375q-2.25 1.234375 -5.6875 1.234375q-4.203125 0 -6.734375 -2.09375q-2.515625 -2.109375 -2.515625 -5.984375q0 -3.984375 2.765625 -6.0q2.78125 -2.015625 12.390625 -2.875q2.1875 -0.1875 3.0625 -1.0q0.875 -0.828125 0.875 -2.703125q0 -2.78125 -1.703125 -4.21875q-1.6875 -1.4375 -5.484375 -1.4375q-3.46875 0 -5.375 1.640625q-1.890625 1.640625 -2.0 4.765625l-3.359375 0q0.234375 -4.53125 3.109375 -6.859375q2.875 -2.34375 8.0625 -2.34375zm6.640625 13.25q-0.515625 0.9375 -3.203125 1.296875q-2.65625 0.359375 -5.890625 0.921875q-3.21875 0.5625 -4.875 1.84375q-1.65625 1.265625 -1.65625 3.515625q0 2.4375 1.8125 3.9375q1.828125 1.5 4.328125 1.5q4.125 0 6.859375 -2.4375q2.734375 -2.453125 2.734375 -6.046875l0 -4.53125l-0.109375 0zm22.41397 -13.25q5.296875 0 7.671875 2.578125q2.390625 2.5625 2.390625 7.75l0 17.96875l-3.359375 0l0 -17.390625q0 -3.984375 -1.734375 -6.046875q-1.734375 -2.0625 -5.25 -2.0625q-2.765625 0 -4.765625 1.34375q-1.984375 1.34375 -2.9375 3.59375q-0.9375 2.25 -0.9375 4.46875l0 16.09375l-3.359375 0l0 -27.515625l3.359375 0l0 4.75l0.09375 0q0.96875 -2.46875 3.390625 -4.0q2.421875 -1.53125 5.4375 -1.53125zm26.174286 0q4.484375 0 7.140625 2.296875q2.671875 2.28125 2.9375 6.515625l-3.359375 0q-0.15625 -2.90625 -2.125 -4.453125q-1.96875 -1.5625 -5.09375 -1.5625q-2.90625 0 -4.703125 1.25q-1.796875 1.25 -1.796875 3.5q0 1.765625 1.59375 2.921875q1.609375 1.15625 4.125 1.734375l5.765625 1.28125q2.828125 0.640625 4.6875 2.546875q1.875 1.90625 1.875 4.796875q0 3.84375 -3.171875 6.0625q-3.15625 2.21875 -7.90625 2.21875q-5.09375 0 -7.984375 -2.453125q-2.890625 -2.453125 -3.3125 -7.265625l3.390625 0q0.171875 3.25 2.375 5.0625q2.203125 1.8125 5.71875 1.8125q3.125 0 5.328125 -1.40625q2.203125 -1.40625 2.203125 -3.828125q0 -1.84375 -1.421875 -3.0625q-1.421875 -1.234375 -4.734375 -1.96875l-4.21875 -0.9375q-3.609375 -0.78125 -5.640625 -2.515625q-2.03125 -1.75 -2.03125 -4.84375q0 -3.578125 2.90625 -5.640625q2.921875 -2.0625 7.453125 -2.0625zm19.28917 -9.765625l0 5.390625l-3.359375 0l0 -5.390625l3.359375 0zm0 10.546875l0 27.515625l-3.359375 0l0 -27.515625l3.359375 0zm18.07196 -0.78125q5.890625 0 9.453125 4.09375q3.5625 4.078125 3.5625 10.453125q0 3.859375 -1.46875 7.1875q-1.46875 3.328125 -4.484375 5.359375q-3.0 2.015625 -7.0625 2.015625q-5.828125 0 -9.40625 -4.09375q-3.578125 -4.109375 -3.578125 -10.46875q0 -6.375 3.5625 -10.453125q3.5625 -4.09375 9.421875 -4.09375zm-9.625 14.546875q0 4.875 2.625 8.296875q2.625 3.421875 7.0 3.421875q4.375 0 7.015625 -3.4375q2.65625 -3.4375 2.65625 -8.28125q0 -4.84375 -2.65625 -8.296875q-2.640625 -3.453125 -7.0625 -3.453125q-4.265625 0 -6.921875 3.421875q-2.65625 3.40625 -2.65625 8.328125zm39.90857 -14.546875q5.296875 0 7.671875 2.578125q2.390625 2.5625 2.390625 7.75l0 17.96875l-3.359375 0l0 -17.390625q0 -3.984375 -1.734375 -6.046875q-1.734375 -2.0625 -5.25 -2.0625q-2.765625 0 -4.765625 1.34375q-1.984375 1.34375 -2.9375 3.59375q-0.9375 2.25 -0.9375 4.46875l0 16.09375l-3.359375 0l0 -27.515625l3.359375 0l0 4.75l0.09375 0q0.96875 -2.46875 3.390625 -4.0q2.421875 -1.53125 5.4375 -1.53125z" fill-rule="nonzero"/><path fill="#ffffff" d="m327.82034 40.354034l0 7.03125l-20.09375 0l0 8.140625l18.421875 0l0 6.515625l-18.421875 0l0 9.34375l20.515625 0l0 7.03125l-28.90625 0l0 -38.0625l28.484375 0zm11.897675 10.484375l4.84375 7.21875l4.796875 -7.21875l8.375 0l-9.046875 12.921875l10.171875 14.65625l-8.640625 0l-5.75 -8.703125l-5.765625 8.703125l-8.484375 0l9.921875 -14.5l-9.0625 -13.078125l8.640625 0zm37.549286 -0.71875q5.859375 0 9.1875 4.09375q3.34375 4.09375 3.34375 10.71875q0 6.109375 -3.28125 10.171875q-3.28125 4.0625 -8.828125 4.0625q-2.53125 0 -4.71875 -1.078125q-2.1875 -1.078125 -3.53125 -3.078125l-0.140625 0l0 13.125l-7.546875 0l0 -37.296875l7.1875 0l0 3.515625l0.109375 0q1.34375 -2.15625 3.4375 -3.1875q2.109375 -1.046875 4.78125 -1.046875zm-8.21875 14.59375q0 3.96875 1.6875 6.359375q1.6875 2.390625 4.921875 2.390625q3.15625 0 4.859375 -2.28125q1.703125 -2.296875 1.703125 -6.46875q0 -3.953125 -1.703125 -6.421875q-1.6875 -2.484375 -4.96875 -2.484375q-3.125 0 -4.8125 2.34375q-1.6875 2.34375 -1.6875 6.5625zm33.059326 -24.359375l0 38.0625l-7.578125 0l0 -38.0625l7.578125 0zm19.358032 9.765625q6.484375 0 10.375 4.0q3.90625 3.984375 3.90625 10.546875q0 6.59375 -3.9375 10.546875q-3.9375 3.953125 -10.34375 3.953125q-6.40625 0 -10.328125 -3.984375q-3.921875 -3.984375 -3.921875 -10.515625q0 -6.53125 3.84375 -10.53125q3.859375 -4.015625 10.40625 -4.015625zm-6.671875 14.546875q0 4.34375 1.78125 6.578125q1.78125 2.21875 4.890625 2.21875q3.21875 0 4.96875 -2.296875q1.75 -2.3125 1.75 -6.5q0 -4.109375 -1.703125 -6.484375q-1.6875 -2.375 -5.078125 -2.375q-3.046875 0 -4.828125 2.203125q-1.78125 2.203125 -1.78125 6.65625zm41.9187 -14.546875q0.5 0 0.90625 0.0625q0.421875 0.0625 0.796875 0.1875l0 7.03125q-0.65625 -0.125 -1.265625 -0.1875q-0.609375 -0.078125 -1.453125 -0.078125q-3.828125 0 -5.671875 2.34375q-1.828125 2.34375 -1.828125 6.28125l0 12.65625l-7.546875 0l0 -27.578125l7.1875 0l0 5.125l0.109375 0q1.1875 -2.703125 3.5625 -4.265625q2.390625 -1.578125 5.203125 -1.578125zm17.008392 0q6.125 0 9.78125 4.203125q3.65625 4.203125 3.65625 10.734375l-0.0625 1.40625l-19.890625 0q0.15625 3.5625 1.859375 5.28125q1.71875 1.71875 4.890625 1.71875q2.0625 0 3.796875 -1.046875q1.75 -1.0625 2.21875 -2.546875l6.65625 0q-1.53125 4.6875 -4.734375 7.0q-3.203125 2.296875 -8.171875 2.296875q-6.375 0 -10.234375 -4.03125q-3.859375 -4.03125 -3.859375 -10.46875q0 -6.171875 3.9375 -10.359375q3.953125 -4.1875 10.15625 -4.1875zm-6.515625 11.546875l12.328125 0q-0.546875 -3.046875 -1.96875 -4.453125q-1.421875 -1.40625 -4.109375 -1.40625q-2.75 0 -4.375 1.5625q-1.609375 1.5625 -1.875 4.296875zm40.46576 -11.546875q0.5 0 0.90625 0.0625q0.421875 0.0625 0.796875 0.1875l0 7.03125q-0.65625 -0.125 -1.265625 -0.1875q-0.609375 -0.078125 -1.453125 -0.078125q-3.828125 0 -5.671875 2.34375q-1.828125 2.34375 -1.828125 6.28125l0 12.65625l-7.546875 0l0 -27.578125l7.1875 0l0 5.125l0.109375 0q1.1875 -2.703125 3.5625 -4.265625q2.390625 -1.578125 5.203125 -1.578125z" fill-rule="nonzero"/><g filter="url(#shadowFilter-p.2)"><use xlink:href="#p.2" transform="matrix(1.0 0.0 0.0 1.0 0.0 2.0)"/></g><defs><filter id="shadowFilter-p.2" filterUnits="userSpaceOnUse"><feGaussianBlur in="SourceAlpha" stdDeviation="9.5" result="blur"/><feComponentTransfer in="blur" color-interpolation-filters="sRGB"><feFuncR type="linear" slope="0" intercept="0.0"/><feFuncG type="linear" slope="0" intercept="0.0"/><feFuncB type="linear" slope="0" intercept="0.0"/><feFuncA type="linear" slope="0.5" intercept="0"/></feComponentTransfer></filter></defs><g id="p.2"><path fill="#003da5" d="m725.06824 24.374016l247.13385 0l34.850403 34.850395l-34.850403 34.850395l-247.13385 0z" fill-rule="evenodd"/></g><g filter="url(#shadowFilter-p.3)"><use xlink:href="#p.3" transform=""/></g><defs><filter id="shadowFilter-p.3" filterUnits="userSpaceOnUse"><feGaussianBlur in="SourceAlpha" stdDeviation="7.5" result="blur"/><feComponentTransfer in="blur" color-interpolation-filters="sRGB"><feFuncR type="linear" slope="0" intercept="0.0"/><feFuncG type="linear" slope="0" intercept="0.0"/><feFuncB type="linear" slope="0" intercept="0.0"/><feFuncA type="linear" slope="0.55" intercept="0"/></feComponentTransfer></filter></defs><g id="p.3"><path fill="#ffffff" d="m655.33167 59.216557l0 0c0 -23.83957 19.325806 -43.165356 43.165344 -43.165356l0 0c11.448181 0 22.42743 4.5477657 30.522522 12.642839c8.095093 8.095076 12.642822 19.07435 12.642822 30.522516l0 0c0 23.839565 -19.325745 43.165356 -43.165344 43.165356l0 0c-23.839539 0 -43.165344 -19.32579 -43.165344 -43.165356z" fill-rule="evenodd"/><path stroke="#003da5" stroke-width="16.0" stroke-linejoin="round" stroke-linecap="butt" d="m655.33167 59.216557l0 0c0 -23.83957 19.325806 -43.165356 43.165344 -43.165356l0 0c11.448181 0 22.42743 4.5477657 30.522522 12.642839c8.095093 8.095076 12.642822 19.07435 12.642822 30.522516l0 0c0 23.839565 -19.325745 43.165356 -43.165344 43.165356l0 0c-23.839539 0 -43.165344 -19.32579 -43.165344 -43.165356z" fill-rule="evenodd"/></g><path fill="#ffffff" d="m792.32947 59.216652l0 0c0 -11.767578 9.539551 -21.307087 21.307129 -21.307087l0 0c5.65094 0 11.070496 2.2448502 15.066345 6.2407036c3.9958496 3.9958534 6.2407227 9.415394 6.2407227 15.066383l0 0c0 11.767578 -9.53949 21.30709 -21.307068 21.30709l0 0c-11.767578 0 -21.307129 -9.539513 -21.307129 -21.30709z" fill-rule="evenodd"/><path fill="#ffffff" d="m885.6133 59.224525l0 0c0 -11.767578 9.53949 -21.307087 21.307068 -21.307087l0 0c5.651001 0 11.070557 2.2448502 15.066406 6.2407036c3.9958496 3.9958534 6.2406616 9.415394 6.2406616 15.066383l0 0c0 11.767578 -9.53949 21.30709 -21.307068 21.30709l0 0c-11.767578 0 -21.307068 -9.539513 -21.307068 -21.30709z" fill-rule="evenodd"/><path fill="#ffffff" d="m562.0479 59.224525l0 0c0 -11.767578 9.53949 -21.307087 21.307068 -21.307087l0 0c5.651001 0 11.070496 2.2448502 15.066406 6.2407036c3.9958496 3.9958534 6.2406616 9.415394 6.2406616 15.066383l0 0c0 11.767578 -9.53949 21.30709 -21.307068 21.30709l0 0c-11.767578 0 -21.307068 -9.539513 -21.307068 -21.30709z" fill-rule="evenodd"/><path fill="#ffffff" d="m799.9069 149.73766l0 0c0 -11.767578 9.53949 -21.307098 21.307068 -21.307098l0 0c5.651001 0 11.070557 2.2448578 15.066406 6.2407074c3.9958496 3.9958496 6.2407227 9.41539 6.2407227 15.066391l0 0c0 11.767578 -9.539551 21.307083 -21.307129 21.307083l0 0c-11.767578 0 -21.307068 -9.539505 -21.307068 -21.307083z" fill-rule="evenodd"/><path fill="#ffffff" d="m860.6025 209.81902l0 0c0 -11.767578 9.53949 -21.307083 21.307068 -21.307083l0 0c5.651001 0 11.070557 2.2448425 15.066406 6.240692c3.9958496 3.9958649 6.2406616 9.415405 6.2406616 15.066391l0 0c0 11.767578 -9.53949 21.307083 -21.307068 21.307083l0 0c-11.767578 0 -21.307068 -9.539505 -21.307068 -21.307083z" fill-rule="evenodd"/><path fill="#003da5" d="m735.3018 24.374016l26.078735 0l0 69.70079l-26.078735 0z" fill-rule="evenodd"/></g></svg>